<svg width="15" height="9" viewBox="0 0 15 9" fill="none" xmlns="http://www.w3.org/2000/svg">
<path d="M7.69493 8.17653C7.53294 8.17653 7.37623 8.14615 7.22478 8.08541C7.07252 8.02467 6.94577 7.94368 6.84453 7.84244L1.2562 2.25412C1.03348 2.03139 0.922119 1.74793 0.922119 1.40372C0.922119 1.05951 1.03348 0.776046 1.2562 0.553322C1.47893 0.330599 1.76239 0.219238 2.1066 0.219238C2.45081 0.219238 2.73428 0.330599 2.957 0.553322L7.69493 5.29125L12.4329 0.553322C12.6556 0.330599 12.939 0.219238 13.2833 0.219238C13.6275 0.219238 13.9109 0.330599 14.1336 0.553322C14.3564 0.776046 14.4677 1.05951 14.4677 1.40372C14.4677 1.74793 14.3564 2.03139 14.1336 2.25412L8.54532 7.84244C8.42384 7.96393 8.29223 8.04978 8.1505 8.09999C8.00876 8.15101 7.85691 8.17653 7.69493 8.17653Z" fill="#252525"/>
</svg>
