<svg width="21" height="21" viewBox="0 0 21 21" fill="none" xmlns="http://www.w3.org/2000/svg">
<path d="M2.99332 2.9224C2.99332 2.15057 3.29993 1.41035 3.8457 0.864583C4.39147 0.318816 5.13169 0.012207 5.90352 0.012207C6.67535 0.012207 7.41557 0.318816 7.96133 0.864583C8.5071 1.41035 8.81371 2.15057 8.81371 2.9224C8.81371 3.69423 8.5071 4.43445 7.96133 4.98022C7.41557 5.52598 6.67535 5.83259 5.90352 5.83259C5.13169 5.83259 4.39147 5.52598 3.8457 4.98022C3.29993 4.43445 2.99332 3.69423 2.99332 2.9224ZM12.8574 5.22727L12.9185 5.27384C13.5359 5.73147 14.3093 5.92633 15.0698 5.81588C15.8303 5.70542 16.5163 5.29864 16.978 4.68428C17.4397 4.06993 17.6396 3.29789 17.5342 2.53665C17.4288 1.77542 17.0265 1.08678 16.4152 0.621037C15.8039 0.15529 15.0332 -0.049756 14.2713 0.0506465C13.5094 0.151049 12.8181 0.548748 12.3484 1.15695C11.8786 1.76516 11.6685 2.53449 11.7638 3.29705C11.8592 4.05961 12.2523 4.7535 12.8574 5.22727ZM7.74858 7.28769C7.93134 6.94162 8.18203 6.63596 8.48565 6.38901C8.78927 6.14206 9.13958 5.95888 9.51563 5.85045C9.89168 5.74201 10.2857 5.71053 10.6742 5.75791C11.0627 5.80528 11.4377 5.93053 11.7766 6.12615C12.1156 6.32178 12.4116 6.58377 12.647 6.89645C12.8824 7.20912 13.0523 7.56606 13.1465 7.94592C13.2408 8.32577 13.2574 8.72073 13.1955 9.10717C13.1336 9.49361 12.9943 9.86359 12.7861 10.195C12.3856 10.8325 11.7535 11.29 11.0227 11.4713C10.292 11.6526 9.5194 11.5436 8.8673 11.1673C8.21519 10.7909 7.73432 10.1765 7.52571 9.45304C7.3171 8.7296 7.39698 7.95347 7.74858 7.28769ZM2.26577 7.28769H6.15088C5.89227 8.02623 5.83604 8.82054 5.98803 9.58815C6.14002 10.3558 6.49468 11.0687 7.01521 11.653H6.63106C5.88087 11.6529 5.14897 11.8846 4.53556 12.3165C3.92214 12.7483 3.45718 13.3592 3.20431 14.0655C2.71589 13.8693 2.25857 13.6032 1.84671 13.2754C0.752474 12.3951 0.0831299 11.0942 0.0831299 9.47034C0.0831299 8.89146 0.313087 8.3363 0.722412 7.92697C1.13174 7.51765 1.6869 7.28769 2.26577 7.28769ZM13.9065 11.653C14.6565 11.653 15.3882 11.8848 16.0014 12.3166C16.6146 12.7485 17.0792 13.3594 17.3318 14.0655C17.8266 13.8633 18.2849 13.5999 18.6909 13.2754C19.7851 12.3951 20.4545 11.0942 20.4545 9.47034C20.4545 8.89146 20.2245 8.3363 19.8152 7.92697C19.4059 7.51765 18.8507 7.28769 18.2718 7.28769H14.3867C14.5468 7.74314 14.6341 8.2335 14.6341 8.74279C14.6354 9.81682 14.2395 10.8534 13.5224 11.653H13.9065ZM15.9248 14.4584C16.031 14.7145 16.0892 14.9968 16.0892 15.2907C16.0892 16.9146 15.4213 18.2155 14.3256 19.0958C13.2474 19.9616 11.801 20.3836 10.2688 20.3836C8.73659 20.3836 7.29022 19.9616 6.212 19.0958C5.11776 18.2155 4.44842 16.9146 4.44842 15.2907C4.44765 15.0039 4.50358 14.7197 4.613 14.4546C4.72242 14.1894 4.88316 13.9485 5.08599 13.7456C5.28882 13.5428 5.52974 13.3821 5.7949 13.2727C6.06005 13.1632 6.34422 13.1073 6.63106 13.1081H13.9065C14.3389 13.108 14.7615 13.2363 15.1208 13.4767C15.4801 13.7171 15.7599 14.0588 15.9248 14.4584Z" fill="#535353"/>
</svg>
