<svg width="309" height="272" viewBox="0 0 309 272" fill="none" xmlns="http://www.w3.org/2000/svg">
<path d="M14.1181 270.5L128.065 233.017C130.012 231.252 130.698 229.943 131.064 227.02L150.555 124.567C152.886 121.638 154.231 121.597 156.552 124.567L175.543 227.02C176.715 231.423 178.146 233.074 182.54 234.017C182.54 234.017 277.481 266.5 290.99 270.5C304.5 274.5 312 266.5 306.983 257.506C301.966 248.512 168.547 9.62059 162.05 4.12311C155.553 -1.37437 150.555 -1.37438 145.058 4.12311C139.56 9.6206 66.0941 141.56 66.0941 141.56C63.3617 146.407 61.8303 146.2 59.0973 141.56L55.0992 132.064C50.6496 124.596 47.9322 124.395 42.6049 132.064L0.124556 257.006C-0.842489 267.488 3.82146 271.119 14.1181 270.5Z" fill="white"/>
</svg>
