<svg width="24" height="15" viewBox="0 0 24 15" fill="none" xmlns="http://www.w3.org/2000/svg">
<path d="M11.9058 10.3513L1.75012 0.20748L0.0831299 1.87448L10.1324 11.9237H2.44766V14.2883H21.3639V11.9237H13.6792L19.7679 5.83507C20.1736 5.98233 20.6067 6.03894 21.0366 6.00092C21.4666 5.96289 21.883 5.83116 22.2566 5.61499C22.6302 5.39881 22.9519 5.10343 23.1991 4.74961C23.4463 4.39579 23.613 3.99212 23.6875 3.56697C23.7621 3.14182 23.7425 2.7055 23.6304 2.2887C23.5182 1.8719 23.3161 1.48472 23.0383 1.15437C22.7605 0.824032 22.4137 0.558546 22.0223 0.376576C21.6309 0.194607 21.2044 0.10057 20.7728 0.101076C19.9889 0.101076 19.2371 0.412476 18.6828 0.96677C18.1285 1.52107 17.8171 2.27285 17.8171 3.05674C17.8171 3.47053 17.8999 3.84886 18.0536 4.20354L11.9058 10.3513Z" fill="#535353"/>
</svg>
