<svg width="62" height="62" viewBox="0 0 62 62" fill="none" xmlns="http://www.w3.org/2000/svg">
<g filter="url(#filter0_d_1632_1587)">
<g filter="url(#filter1_d_1632_1587)">
<rect x="9" y="7" width="44" height="44" rx="5" fill="url(#paint0_linear_1632_1587)" shape-rendering="crispEdges"/>
<path d="M40 20C40.2652 20 40.5196 20.1054 40.7071 20.2929C40.8946 20.4804 41 20.7348 41 21V35C41 35.2652 40.8946 35.5196 40.7071 35.7071C40.5196 35.8946 40.2652 36 40 36H25.455L21 39.5V21C21 20.7348 21.1054 20.4804 21.2929 20.2929C21.4804 20.1054 21.7348 20 22 20H40ZM36 24H34V32H36V24ZM30 25H28V26.999L26 27V29L28 28.999V31H30V28.999L32 29V27L30 26.999V25Z" fill="black"/>
<path d="M40 20C40.2652 20 40.5196 20.1054 40.7071 20.2929C40.8946 20.4804 41 20.7348 41 21V35C41 35.2652 40.8946 35.5196 40.7071 35.7071C40.5196 35.8946 40.2652 36 40 36H25.455L21 39.5V21C21 20.7348 21.1054 20.4804 21.2929 20.2929C21.4804 20.1054 21.7348 20 22 20H40ZM36 24H34V32H36V24ZM30 25H28V26.999L26 27V29L28 28.999V31H30V28.999L32 29V27L30 26.999V25Z" fill="url(#paint1_linear_1632_1587)"/>
<rect x="9.5" y="7.5" width="43" height="43" rx="4.5" stroke="#8014FF" shape-rendering="crispEdges"/>
</g>
<rect x="4.5" y="2.5" width="53" height="53" rx="4.5" stroke="url(#paint2_linear_1632_1587)" shape-rendering="crispEdges"/>
</g>
<defs>
<filter id="filter0_d_1632_1587" x="0" y="0" width="62" height="62" filterUnits="userSpaceOnUse" color-interpolation-filters="sRGB">
<feFlood flood-opacity="0" result="BackgroundImageFix"/>
<feColorMatrix in="SourceAlpha" type="matrix" values="0 0 0 0 0 0 0 0 0 0 0 0 0 0 0 0 0 0 127 0" result="hardAlpha"/>
<feOffset dy="2"/>
<feGaussianBlur stdDeviation="2"/>
<feComposite in2="hardAlpha" operator="out"/>
<feColorMatrix type="matrix" values="0 0 0 0 0 0 0 0 0 0 0 0 0 0 0 0 0 0 0.55 0"/>
<feBlend mode="normal" in2="BackgroundImageFix" result="effect1_dropShadow_1632_1587"/>
<feBlend mode="normal" in="SourceGraphic" in2="effect1_dropShadow_1632_1587" result="shape"/>
</filter>
<filter id="filter1_d_1632_1587" x="5" y="7" width="52" height="52" filterUnits="userSpaceOnUse" color-interpolation-filters="sRGB">
<feFlood flood-opacity="0" result="BackgroundImageFix"/>
<feColorMatrix in="SourceAlpha" type="matrix" values="0 0 0 0 0 0 0 0 0 0 0 0 0 0 0 0 0 0 127 0" result="hardAlpha"/>
<feOffset dy="4"/>
<feGaussianBlur stdDeviation="2"/>
<feComposite in2="hardAlpha" operator="out"/>
<feColorMatrix type="matrix" values="0 0 0 0 0.74 0 0 0 0 0 0 0 0 0 1 0 0 0 0.18 0"/>
<feBlend mode="normal" in2="BackgroundImageFix" result="effect1_dropShadow_1632_1587"/>
<feBlend mode="normal" in="SourceGraphic" in2="effect1_dropShadow_1632_1587" result="shape"/>
</filter>
<linearGradient id="paint0_linear_1632_1587" x1="9.56381" y1="7.30409" x2="102.087" y2="122.899" gradientUnits="userSpaceOnUse">
<stop stop-color="white"/>
<stop offset="1" stop-color="#DE82FF" stop-opacity="0"/>
</linearGradient>
<linearGradient id="paint1_linear_1632_1587" x1="31" y1="20" x2="31" y2="39.5" gradientUnits="userSpaceOnUse">
<stop stop-color="#0066FF"/>
<stop offset="1" stop-color="#EB00FF"/>
</linearGradient>
<linearGradient id="paint2_linear_1632_1587" x1="31" y1="2" x2="31" y2="56" gradientUnits="userSpaceOnUse">
<stop stop-color="#AEBED1"/>
<stop offset="1" stop-color="#AEBED1" stop-opacity="0"/>
</linearGradient>
</defs>
</svg>
