<svg width="25" height="24" viewBox="0 0 25 24" fill="none" xmlns="http://www.w3.org/2000/svg">
<path d="M13.2907 0.199707V6.00876C12.9132 5.9433 12.5304 5.91268 12.1472 5.91728C11.764 5.91268 11.3813 5.9433 11.0037 6.00876V0.199707M17.7504 15.0654C17.6978 15.2786 17.6329 15.4886 17.556 15.6943L21.2953 17.8327V23.07H19.0083V19.1592L16.4239 17.684C15.8936 18.2986 15.2371 18.7916 14.4991 19.1296C13.7611 19.4675 12.9589 19.6424 12.1472 19.6424C11.3355 19.6424 10.5333 19.4675 9.7953 19.1296C9.05728 18.7916 8.40077 18.2986 7.87046 17.684L5.28612 19.1592V23.07H2.99909V17.8327L6.73838 15.6943C6.66156 15.4886 6.59665 15.2786 6.54398 15.0654H4.48566L1.341 17.158L0.0831299 15.2598L3.79955 12.7784H6.54398C6.61574 12.4342 6.71909 12.0973 6.85273 11.7721L5.06885 10.6286L0.986506 11.6348L0.437619 9.34782L5.50339 8.11282L8.14491 9.8624C9.21368 8.81479 10.6506 8.22799 12.1472 8.22799C13.6438 8.22799 15.0807 8.81479 16.1495 9.8624L18.7453 8.11282L23.8568 9.34782L23.3079 11.6348L19.2256 10.6171L17.4417 11.7606C17.576 12.0895 17.6794 12.4303 17.7504 12.7784H20.4949L24.2113 15.2484L22.9534 17.1466L19.8087 15.0654M11.0037 13.9219C11.0037 13.6957 10.9366 13.4746 10.811 13.2866C10.6853 13.0985 10.5067 12.952 10.2978 12.8654C10.0888 12.7789 9.85891 12.7562 9.63709 12.8003C9.41527 12.8445 9.21151 12.9534 9.05159 13.1133C8.89167 13.2732 8.78276 13.477 8.73863 13.6988C8.69451 13.9206 8.71716 14.1505 8.80371 14.3595C8.89026 14.5684 9.03682 14.747 9.22487 14.8727C9.41292 14.9983 9.63401 15.0654 9.86018 15.0654C10.1635 15.0654 10.4543 14.9449 10.6688 14.7305C10.8832 14.516 11.0037 14.2252 11.0037 13.9219ZM15.5777 13.9219C15.5777 13.6957 15.5107 13.4746 15.385 13.2866C15.2594 13.0985 15.0808 12.952 14.8718 12.8654C14.6629 12.7789 14.433 12.7562 14.2111 12.8003C13.9893 12.8445 13.7856 12.9534 13.6256 13.1133C13.4657 13.2732 13.3568 13.477 13.3127 13.6988C13.2686 13.9206 13.2912 14.1505 13.3778 14.3595C13.4643 14.5684 13.6109 14.747 13.7989 14.8727C13.987 14.9983 14.2081 15.0654 14.4342 15.0654C14.7375 15.0654 15.0284 14.9449 15.2428 14.7305C15.4573 14.516 15.5777 14.2252 15.5777 13.9219Z" fill="#535353"/>
</svg>
