<svg width="12" height="11" viewBox="0 0 12 11" fill="none" xmlns="http://www.w3.org/2000/svg">
<path d="M10.8934 0.209209C10.7021 0.102753 10.4917 0.0350531 10.2742 0.00998182C10.0567 -0.0150894 9.83635 0.00295926 9.62583 0.0630959C9.41531 0.123233 9.21872 0.224278 9.04728 0.360452C8.87584 0.496627 8.73293 0.66526 8.62672 0.856709L5.53255 6.42504L3.76172 4.65421C3.60798 4.49503 3.42407 4.36805 3.22073 4.28071C3.01739 4.19336 2.79869 4.14738 2.57739 4.14546C2.35609 4.14353 2.13662 4.1857 1.9318 4.26951C1.72697 4.35331 1.54088 4.47706 1.3844 4.63355C1.22791 4.79004 1.10415 4.97612 1.02035 5.18095C0.93655 5.38578 0.89438 5.60525 0.896303 5.82654C0.898226 6.04784 0.944203 6.26654 1.03155 6.46988C1.1189 6.67322 1.24587 6.85713 1.40505 7.01088L4.73839 10.3442C5.05339 10.66 5.47839 10.8334 5.91672 10.8334L6.14755 10.8167C6.40301 10.781 6.64669 10.6864 6.8594 10.5405C7.07212 10.3946 7.24806 10.2013 7.37339 9.97588L11.5401 2.47588C11.6464 2.28458 11.7141 2.07421 11.7392 1.85678C11.7642 1.63934 11.7462 1.41909 11.6862 1.20861C11.6261 0.998125 11.5252 0.801532 11.3892 0.630055C11.2532 0.458577 11.0847 0.315574 10.8934 0.209209Z" fill="white"/>
</svg>
