<svg width="198" height="62" viewBox="0 0 198 62" fill="none" xmlns="http://www.w3.org/2000/svg">
<g opacity="0.5">
<path d="M28.1098 21.1757C9.6289 20.742 2.59624 26.8108 0.63025 32.1934C-0.47576 35.2215 1.04522 38.4377 3.29155 40.75C19.9196 57.8661 52.8522 60.182 94.8569 61.8671C139.739 63.6676 191.525 46.7429 196.896 37.0202C202.266 27.2974 187.306 3.5308 168.125 0.289894C160.758 -0.95493 154.511 1.95625 149.639 6.2097C141.764 13.0846 131.314 18.5668 121.147 16.135C108.027 12.9969 94.8569 11.2894 94.8569 16.4944C94.8569 22.3795 87.537 26.0245 81.2046 27.866C77.6459 28.901 73.8779 28.2949 70.3294 27.2252C62.0823 24.7391 47.2787 21.6256 28.1098 21.1757Z" fill="#7A87B3"/>
<path d="M35.5794 37.2778C23.4602 37.0772 17.0901 39.1799 14.015 41.636C10.927 44.1024 13.0503 48.4318 16.4199 50.4968C31.2259 59.5705 58.4526 60.8869 92.7369 61.857C131.17 62.9446 175.517 52.7214 180.116 46.8485C184.714 40.9756 171.903 26.6196 155.479 24.6619C149.899 23.9969 145.07 25.2956 141.142 27.3822C133.422 31.4829 124.727 35.8672 116.113 34.3803C104.6 32.393 92.7369 31.2255 92.7369 34.4501C92.7369 38.1698 85.8737 40.4079 80.2978 41.4668C77.683 41.9633 75.0066 41.6505 72.4074 41.0778C65.4954 39.5548 52.5306 37.5584 35.5794 37.2778Z" fill="url(#paint0_linear_1262_1551)"/>
</g>
<defs>
<linearGradient id="paint0_linear_1262_1551" x1="96.2847" y1="24.4868" x2="96.2847" y2="61.9373" gradientUnits="userSpaceOnUse">
<stop stop-color="#565F7C"/>
<stop offset="1" stop-color="#434B67"/>
</linearGradient>
</defs>
</svg>
